<svg id="Layer_1" data-name="Layer 1" xmlns="http://www.w3.org/2000/svg" viewBox="0 0 514.92 88.2"><defs><style>.cls-1{fill:#fff;}</style></defs><title>skyscanner_RGB_white</title><path class="cls-1" d="M217.82,80.35a1.41,1.41,0,0,1-1.87.89,21.71,21.71,0,0,0-7.57-1.57c-4.32,0-8.4,1.3-8.4,5.63,0,2.34,1.3,3.55,5.46,4.85l3,.95c6.06,1.9,8.66,4.67,8.66,10,0,9.26-6.49,15.58-18.26,15.58a36.06,36.06,0,0,1-11.93-1.9,1.63,1.63,0,0,1-1-2l1.38-4.8a1.4,1.4,0,0,1,1.89-.86,26.08,26.08,0,0,0,9.36,2.05c5.28,0,9-1.82,9-6.06,0-2.51-1.73-3.46-5.63-4.67l-3.29-1c-5.8-1.9-8.4-5.37-8.4-10.9,0-9.43,7.88-14.53,18.26-14.53a31.31,31.31,0,0,1,9.67,1.72,1.61,1.61,0,0,1,1,2Z" transform="translate(-45.87 -45.77)"/><path class="cls-1" d="M238.27,55.65a1.28,1.28,0,0,1,1.26,1.53l-6.37,32.91A78.51,78.51,0,0,0,249,74.6a3.11,3.11,0,0,1,2.47-1.21h6.93a.82.82,0,0,1,.65,1.3A97.49,97.49,0,0,1,243.8,91.82l8.77,22.09a1.06,1.06,0,0,1-1,1.45h-7.36a2.24,2.24,0,0,1-2.09-1.46l-6-16.45c-1.82,1.21-3.55,2.25-5,3l-2.56,13.36a1.89,1.89,0,0,1-1.84,1.53h-6.33a1.28,1.28,0,0,1-1.26-1.53l11-56.66a1.88,1.88,0,0,1,1.85-1.53Z" transform="translate(-45.87 -45.77)"/><path class="cls-1" d="M270.64,73.39a1.28,1.28,0,0,1,1.26,1.53L267.61,97a28.63,28.63,0,0,0-.69,5.71c0,2.59,1.47,4.33,4.93,4.33a15.66,15.66,0,0,0,10.3-4.24l5.5-27.9a1.9,1.9,0,0,1,1.85-1.53h6.33a1.28,1.28,0,0,1,1.25,1.53L291.4,104c-.69,3.37-1.47,7.18-2.16,10.21-3.29,13.67-9.52,19.73-22,19.73a30.86,30.86,0,0,1-7.85-1,1.68,1.68,0,0,1-1.21-2l1.08-4.42a1.51,1.51,0,0,1,1.81-1.13,25.66,25.66,0,0,0,5.74.74c7.36,0,11.68-3.11,13.24-11.59l.61-3.21A19.86,19.86,0,0,1,268.21,116c-7.27,0-11.16-3.63-11.16-9.43a60.8,60.8,0,0,1,1.47-11.25l3.94-20.37a1.89,1.89,0,0,1,1.85-1.53Z" transform="translate(-45.87 -45.77)"/><path class="cls-1" d="M327.73,80.38a1.41,1.41,0,0,1-1.87.89,21.7,21.7,0,0,0-7.57-1.57c-4.32,0-8.39,1.3-8.39,5.63,0,2.34,1.29,3.55,5.45,4.85l3,.95c6.06,1.9,8.65,4.67,8.65,10,0,9.26-6.49,15.58-18.26,15.58a36,36,0,0,1-11.93-1.9,1.63,1.63,0,0,1-1-2l1.39-4.8a1.4,1.4,0,0,1,1.89-.86,26,26,0,0,0,9.36,2.05c5.28,0,9-1.82,9-6.06,0-2.51-1.73-3.46-5.62-4.67l-3.3-1c-5.79-1.9-8.39-5.37-8.39-10.9,0-9.43,7.87-14.53,18.26-14.53a31.32,31.32,0,0,1,9.67,1.72,1.62,1.62,0,0,1,1,2Z" transform="translate(-45.87 -45.77)"/><path class="cls-1" d="M364.66,81.32a1.29,1.29,0,0,1-1.8.79,18.52,18.52,0,0,0-7.79-1.63c-9.17,0-14.71,7.88-14.71,17.91.09,6,2.25,10,9,10a26,26,0,0,0,8.93-1.5,1,1,0,0,1,1.36,1l-.59,5a2.56,2.56,0,0,1-1.69,2.13,31.31,31.31,0,0,1-10.42,1.67c-11.25,0-16.53-6.4-16.53-17,0-15,8.48-27.77,24.75-27.77a25.17,25.17,0,0,1,10,1.9,1.83,1.83,0,0,1,1,2.19Z" transform="translate(-45.87 -45.77)"/><path class="cls-1" d="M371.56,76.5a2.25,2.25,0,0,1,1.51-2.08A46.77,46.77,0,0,1,387,72c8.65,0,14.28,2.59,14.28,10.12a28.54,28.54,0,0,1-.69,5.54l-3.37,17.74c-.52,2.66-.26,4.15.89,4.73a1.77,1.77,0,0,1,1.14,1.81l-.51,2.49a2.49,2.49,0,0,1-1.88,2,15.53,15.53,0,0,1-3.1.34c-3.9,0-5.8-1.82-6.06-5h-.26a16.38,16.38,0,0,1-12.29,5c-7.35,0-12.11-3.72-12.11-11.16,0-10,8-17.22,25.79-17.22h2.34a20.06,20.06,0,0,0,.43-3.55c0-3.46-1.73-5-7.18-5A37.61,37.61,0,0,0,372.85,82a1.06,1.06,0,0,1-1.4-1Zm16.57,18.61c-8.74,0-15.15,2.85-15.15,9.17,0,2.77,1.65,4.5,5.37,4.5a14.08,14.08,0,0,0,9.6-4.24l1.9-9.43Z" transform="translate(-45.87 -45.77)"/><path class="cls-1" d="M417.55,73.39A1.41,1.41,0,0,1,419,74.94l-.28,2.95h.08a24.11,24.11,0,0,1,15-5.88c6.58,0,10.9,3.8,10.9,9.86a41.94,41.94,0,0,1-.95,8.13l-4.55,23.83a1.9,1.9,0,0,1-1.85,1.53H431a1.28,1.28,0,0,1-1.25-1.53l4.2-21.75a35.88,35.88,0,0,0,.78-6.06c0-3.2-1.73-4.84-5.37-4.84-4,0-8.48,2.07-11.68,5.1l-5.25,27.55a1.88,1.88,0,0,1-1.84,1.53h-6.32a1.28,1.28,0,0,1-1.26-1.53l7.46-38.91a1.88,1.88,0,0,1,1.84-1.53Z" transform="translate(-45.87 -45.77)"/><path class="cls-1" d="M460.38,73.39a1.42,1.42,0,0,1,1.41,1.55l-.29,2.95h.09a24.1,24.1,0,0,1,15-5.88c6.58,0,10.91,3.8,10.91,9.86a42.24,42.24,0,0,1-1,8.13L482,113.83a1.89,1.89,0,0,1-1.85,1.53h-6.33a1.29,1.29,0,0,1-1.26-1.53l4.21-21.75a36.28,36.28,0,0,0,.78-6.06c0-3.2-1.73-4.84-5.37-4.84-4,0-8.48,2.07-11.68,5.1l-5.24,27.55a1.89,1.89,0,0,1-1.85,1.53H447a1.29,1.29,0,0,1-1.26-1.53l7.47-38.91a1.88,1.88,0,0,1,1.85-1.53Z" transform="translate(-45.87 -45.77)"/><path class="cls-1" d="M500.88,98.4a13.61,13.61,0,0,0,.09,3.81c.78,4.24,4.07,6.32,9.6,6.32a38.79,38.79,0,0,0,11.49-1.73,1,1,0,0,1,1.3,1l-.58,4.79a2.48,2.48,0,0,1-1.6,2.08,38.84,38.84,0,0,1-12.52,2.06c-11.94,0-17.74-5.1-17.74-16.7,0-10,3.29-19.3,10.39-24.23,3.55-2.51,8-3.8,13.5-3.8,10,0,14.45,5.7,14.45,14.19a55.82,55.82,0,0,1-1.16,10.75,1.87,1.87,0,0,1-1.87,1.45ZM519,91.56a20.27,20.27,0,0,0,.69-5c0-3.89-1.73-6.66-6.14-6.66-6.4,0-10.3,4.67-11.68,11.68Z" transform="translate(-45.87 -45.77)"/><path class="cls-1" d="M544.76,73.39a1.45,1.45,0,0,1,1.44,1.55L546,78.32h.17a16.09,16.09,0,0,1,12.29-5.88c.49,0,.9,0,1.26,0a1.27,1.27,0,0,1,1,1.71L559,79.78a2.24,2.24,0,0,1-2.08,1.5,22.21,22.21,0,0,0-11.45,3.45l-5.59,29.1a1.89,1.89,0,0,1-1.85,1.53h-6.32a1.28,1.28,0,0,1-1.26-1.53l7.46-38.91a1.89,1.89,0,0,1,1.84-1.53Z" transform="translate(-45.87 -45.77)"/><path class="cls-1" d="M115.07,81.81A59.7,59.7,0,0,1,157.5,64.29h.12A30.38,30.38,0,0,1,160,74.62q-1.22-.06-2.45-.06h-.13a49.63,49.63,0,0,0-49.62,49.62c0,.06,0,.12,0,.18H97.54A59.72,59.72,0,0,1,115.07,81.81Zm60.86,19.65c.07-.81.11-1.62.11-2.45a25.09,25.09,0,0,0-2.51-11,39.53,39.53,0,0,0-55.6,36.3h10.31A29.07,29.07,0,0,1,157,95h1A29.13,29.13,0,0,1,175.93,101.46ZM73,89.41v0Zm98.54,20.8A19.63,19.63,0,0,0,158,104.45h-1a19.68,19.68,0,0,0-19.27,19.9h9.9c.65-3.31,1.25-5,3.13-6.87a9.77,9.77,0,0,1,13.52,0,9.23,9.23,0,0,1,1.57,2.13,24.72,24.72,0,0,0,7-8C172.42,111.15,172,110.67,171.54,110.21Zm-83.71,14a69.61,69.61,0,0,1,63.44-69.33,30.5,30.5,0,0,0-52,17.83A17.18,17.18,0,0,0,90.11,70C80.58,70,71.91,79.58,73,89.41a18.53,18.53,0,1,0-11.28,34.75,12.29,12.29,0,0,0,2.16.19H87.82C87.82,124.29,87.82,124.24,87.82,124.18ZM73,89.18c0,.06,0,.14,0,.2S73,89.22,73,89.18Zm0,0c0-.07,0-.1,0,0Z" transform="translate(-45.87 -45.77)"/></svg>