<svg id="Layer_1" data-name="Layer 1" xmlns="http://www.w3.org/2000/svg" viewBox="0 0 528.66 279.2"><defs><style>.cls-1{fill:#fff;}</style></defs><title>skyscanner_stacked_RGB_white</title><path class="cls-1" d="M225.88,138.35v-.09c0,.05,0,.09,0,.09" transform="translate(-41 -46.98)"/><path class="cls-1" d="M329.2,137.67a103.22,103.22,0,0,1,73.45-30.42h.28c1.72,0,3.43,0,5.13.13a63.54,63.54,0,0,0-5-21.61h-.25A125.26,125.26,0,0,0,277.27,211.49h21.51c0-.12,0-.25,0-.37A103.2,103.2,0,0,1,329.2,137.67ZM389.73,66a63.84,63.84,0,0,0-108.85,37.33,36,36,0,0,0-19.17-5.51c-19.95,0-38.11,20-35.84,40.54a38.78,38.78,0,1,0-23.6,72.73,25.39,25.39,0,0,0,4.52.41h50.13c0-.12,0-.24,0-.37A145.72,145.72,0,0,1,389.73,66Zm14.14,103.84h0c-.36,0-.73,0-1.09,0s-.73,0-1.09,0h0a41.19,41.19,0,0,0-40.35,41.66h21.6a20,20,0,0,1,34-14.37,19.34,19.34,0,0,1,3.3,4.46,51.85,51.85,0,0,0,14.62-16.71c-.84-1-1.73-2-2.69-3A41.09,41.09,0,0,0,403.87,169.83Zm32.5-34.32a82.74,82.74,0,0,0-116.38,76h21.58a60.85,60.85,0,0,1,60.13-61.43h2.17a61,61,0,0,1,37.51,13.5c.15-1.69.24-3.4.24-5.12A52.54,52.54,0,0,0,436.36,135.5Z" transform="translate(-41 -46.98)"/><path class="cls-1" d="M225.87,138.26l0-.41c0,.08,0,.21,0,.41" transform="translate(-41 -46.98)"/><path class="cls-1" d="M225.82,137.85c0-.2,0-.15,0,0" transform="translate(-41 -46.98)"/><path class="cls-1" d="M86.62,241.18A44.31,44.31,0,0,0,73,238.75c-14.65,0-25.77,7.2-25.77,20.51,0,7.82,3.66,12.7,11.85,15.39l4.64,1.47c5.49,1.71,7.94,3.05,7.94,6.59,0,6-5.25,8.55-12.7,8.55a36.81,36.81,0,0,1-13.21-2.9,2,2,0,0,0-2.66,1.22l-2,6.78a2.3,2.3,0,0,0,1.36,2.85,50.88,50.88,0,0,0,16.83,2.68c16.61,0,25.77-8.92,25.77-22,0-7.57-3.66-11.48-12.21-14.17l-4.27-1.34c-5.86-1.83-7.69-3.54-7.69-6.84,0-6.11,5.74-7.94,11.85-7.94a30.74,30.74,0,0,1,10.68,2.21A2,2,0,0,0,86,250.56L88,244A2.28,2.28,0,0,0,86.62,241.18Zm36.06,25.53a137.5,137.5,0,0,0,21.56-24.19,1.15,1.15,0,0,0-.92-1.82h-9.78a4.42,4.42,0,0,0-3.49,1.7,110.59,110.59,0,0,1-22.4,21.87l9-46.45a1.81,1.81,0,0,0-1.78-2.15h-8.92a2.67,2.67,0,0,0-2.61,2.15l-15.53,80a1.81,1.81,0,0,0,1.77,2.15H98.5a2.66,2.66,0,0,0,2.61-2.15l3.62-18.85c2.08-1.1,4.52-2.57,7.08-4.27l8.53,23.22a3.15,3.15,0,0,0,2.95,2.06h10.39a1.49,1.49,0,0,0,1.38-2Zm72.78-26h-8.92a2.67,2.67,0,0,0-2.62,2.15l-7.76,39.37a22.09,22.09,0,0,1-14.53,6c-4.88,0-7-2.44-7-6.11a40.47,40.47,0,0,1,1-8.06l6.05-31.18a1.81,1.81,0,0,0-1.77-2.15H151a2.66,2.66,0,0,0-2.61,2.15l-5.57,28.74c-1.1,5.62-2.08,11-2.08,15.87,0,8.18,5.49,13.31,15.75,13.31a28,28,0,0,0,17.58-6.47l-.85,4.52c-2.2,12-8.3,16.36-18.68,16.36a36.21,36.21,0,0,1-8.1-1.05,2.14,2.14,0,0,0-2.55,1.59L142.36,322a2.36,2.36,0,0,0,1.7,2.82,43.52,43.52,0,0,0,11.09,1.38c17.59,0,26.38-8.55,31-27.84,1-4.27,2.08-9.65,3.05-14.41l8-41.07A1.81,1.81,0,0,0,195.46,240.7Zm46.49.48a44.29,44.29,0,0,0-13.64-2.43c-14.65,0-25.77,7.2-25.77,20.51,0,7.82,3.66,12.7,11.85,15.39l4.64,1.47c5.49,1.71,7.94,3.05,7.94,6.59,0,6-5.25,8.55-12.7,8.55a36.81,36.81,0,0,1-13.21-2.9,2,2,0,0,0-2.66,1.22l-2,6.78a2.3,2.3,0,0,0,1.37,2.85,50.87,50.87,0,0,0,16.83,2.68c16.61,0,25.77-8.92,25.77-22,0-7.57-3.66-11.48-12.21-14.17l-4.27-1.34c-5.86-1.83-7.69-3.54-7.69-6.84,0-6.11,5.74-7.94,11.85-7.94a30.73,30.73,0,0,1,10.68,2.21,2,2,0,0,0,2.64-1.26l1.93-6.54A2.28,2.28,0,0,0,241.94,241.18Zm38,9.53a26.14,26.14,0,0,1,11,2.3,1.83,1.83,0,0,0,2.54-1.12l2.1-7.38a2.58,2.58,0,0,0-1.44-3.08,35.43,35.43,0,0,0-14.08-2.69c-23,0-34.93,18.07-34.93,39.2,0,14.9,7.45,23.94,23.33,23.94a44.08,44.08,0,0,0,14.71-2.36,3.62,3.62,0,0,0,2.4-3l.83-7.12A1.39,1.39,0,0,0,284.5,288a36.8,36.8,0,0,1-12.61,2.12c-9.53-.12-12.58-5.74-12.7-14.16C259.19,261.82,267,250.71,280,250.71Zm45.06-12a65.9,65.9,0,0,0-19.65,3.41,3.17,3.17,0,0,0-2.13,2.94l-.14,6.24a1.5,1.5,0,0,0,2,1.46,52.82,52.82,0,0,1,16.29-3.06c7.69,0,10.14,2.2,10.14,7.08a27.77,27.77,0,0,1-.61,5h-3.3c-25.16,0-36.39,10.14-36.39,24.3,0,10.5,6.72,15.75,17.1,15.75,7.2,0,13.31-2.69,17.34-7.08H326c.37,4.52,3.05,7.08,8.55,7.08a21.57,21.57,0,0,0,4.37-.48,3.51,3.51,0,0,0,2.66-2.77l.71-3.52a2.5,2.5,0,0,0-1.61-2.55c-1.62-.82-2-2.93-1.25-6.68l4.76-25a40,40,0,0,0,1-7.81C345.16,242.41,337.23,238.74,325,238.74Zm1.34,45.91a19.88,19.88,0,0,1-13.56,6c-5.25,0-7.57-2.44-7.57-6.35,0-8.91,9-12.94,21.37-12.94H329Zm64-45.91c-7.45,0-15.14,3.3-21.13,8.3h-.12l.4-4.17a2,2,0,0,0-2-2.18h-7.46a2.65,2.65,0,0,0-2.61,2.15l-10.53,54.92a1.81,1.81,0,0,0,1.78,2.15h8.92a2.66,2.66,0,0,0,2.6-2.16l7.4-38.88c4.52-4.27,10.87-7.2,16.48-7.2,5.13,0,7.57,2.32,7.57,6.84a51.14,51.14,0,0,1-1.1,8.55l-5.93,30.69a1.81,1.81,0,0,0,1.78,2.15h8.92a2.66,2.66,0,0,0,2.61-2.16l6.43-33.62a59,59,0,0,0,1.34-11.48C405.73,244.12,399.63,238.75,390.35,238.75Zm60.45,0c-7.45,0-15.14,3.3-21.13,8.3h-.12l.4-4.17a2,2,0,0,0-2-2.18H420.5a2.66,2.66,0,0,0-2.61,2.15l-10.53,54.92a1.81,1.81,0,0,0,1.78,2.15h8.92a2.65,2.65,0,0,0,2.6-2.16l7.41-38.88c4.52-4.27,10.87-7.2,16.48-7.2,5.13,0,7.57,2.32,7.57,6.84a51.13,51.13,0,0,1-1.1,8.55l-5.93,30.69a1.81,1.81,0,0,0,1.78,2.15h8.92a2.65,2.65,0,0,0,2.6-2.16l6.43-33.62a59,59,0,0,0,1.34-11.48C466.18,244.12,460.08,238.75,450.79,238.75Zm54,0c-7.82,0-14,1.83-19.05,5.37-10,7-14.65,20-14.65,34.19,0,16.36,8.18,23.57,25,23.57A54.58,54.58,0,0,0,513.76,299,3.51,3.51,0,0,0,516,296l.82-6.76a1.39,1.39,0,0,0-1.85-1.45,54.7,54.7,0,0,1-16.21,2.44c-7.82,0-12.46-2.93-13.56-8.91a19.44,19.44,0,0,1-.12-5.37h35.78a2.65,2.65,0,0,0,2.64-2,78.6,78.6,0,0,0,1.63-15.17C525.16,246.8,518.94,238.74,504.77,238.74Zm6,27.6H486.58c2-9.89,7.45-16.49,16.48-16.49,6.23,0,8.67,3.91,8.67,9.4A29.16,29.16,0,0,1,510.75,266.34Zm57.35-26.94c-.51,0-1.1-.05-1.78-.05a22.68,22.68,0,0,0-17.34,8.3h-.25l.34-4.77a2,2,0,0,0-2-2.19h-7.09a2.65,2.65,0,0,0-2.61,2.15L526.8,297.77a1.81,1.81,0,0,0,1.78,2.15h8.92a2.66,2.66,0,0,0,2.61-2.15L548,256.69c4-2.83,10-4.59,16.16-4.85a3.16,3.16,0,0,0,2.94-2.12l2.47-7.9A1.79,1.79,0,0,0,568.1,239.41Z" transform="translate(-41 -46.98)"/></svg>